<?xml version="1.0" standalone="no"?>
<!DOCTYPE svg PUBLIC "-//W3C//DTD SVG 20010904//EN"
 "http://www.w3.org/TR/2001/REC-SVG-20010904/DTD/svg10.dtd">
<svg version="1.0" xmlns="http://www.w3.org/2000/svg"
 width="341.000000pt" height="341.000000pt" viewBox="0 0 341.000000 341.000000"
 preserveAspectRatio="xMidYMid meet">
<metadata>
Created by potrace 1.11, written by Peter Selinger 2001-2013
</metadata>
<g transform="translate(0.000000,341.000000) scale(0.100000,-0.100000)"
fill="#000000" stroke="none">
<path d="M799 3404 c0 -5 -1 -143 -2 -306 l-2 -297 77 -35 c50 -22 78 -40 78
-50 0 -9 6 -16 13 -17 6 0 3 -4 -8 -9 -17 -7 -17 -9 -3 -9 20 -1 20 -37 1 -49
-7 -5 -7 -11 2 -19 10 -9 14 -8 18 6 3 11 13 18 26 17 24 -1 26 -8 12 -34 -6
-9 -11 -12 -11 -6 0 5 5 15 11 21 9 9 7 12 -10 10 -25 -2 -27 -19 -5 -38 13
-10 17 -10 25 2 7 12 9 11 9 -2 0 -15 68 -49 97 -49 6 0 13 -5 15 -11 2 -5 10
-11 18 -13 8 -1 24 -7 35 -13 22 -11 48 -6 40 8 -4 5 1 6 10 3 10 -4 15 -2 13
6 -2 7 4 15 12 17 13 4 13 3 0 -6 -8 -6 -10 -11 -5 -11 6 0 -1 -9 -15 -20
l-25 -20 23 0 c35 0 37 -1 45 -16 5 -8 12 -12 18 -9 5 4 9 1 9 -4 0 -6 4 -11
9 -11 5 0 8 8 7 17 -1 12 7 17 24 18 15 0 24 -5 23 -12 -2 -8 6 -12 20 -10 12
1 21 -3 20 -10 -2 -6 6 -11 17 -10 11 1 18 8 17 17 -1 8 3 17 8 18 6 2 17 9
25 15 13 10 13 10 1 -5 -7 -10 -17 -15 -22 -12 -5 3 -8 -5 -6 -18 1 -18 -3
-22 -23 -23 -15 0 -24 5 -23 12 2 8 -6 12 -20 10 -12 -1 -21 3 -20 10 2 6 -6
11 -17 10 -22 -1 -24 -5 -10 -27 5 -8 10 -10 10 -5 0 6 4 4 9 -3 4 -7 14 -14
22 -15 8 -2 20 -6 27 -11 7 -4 16 -6 18 -3 3 3 14 -3 25 -14 10 -10 25 -16 34
-13 8 4 15 1 15 -6 0 -6 5 -8 10 -5 6 3 10 1 10 -5 0 -6 5 -8 10 -5 6 3 10 3
10 -2 0 -4 19 -16 43 -26 75 -33 101 -45 137 -63 32 -16 34 -16 21 0 -12 14
-12 16 3 10 9 -3 16 -12 16 -20 0 -21 20 -17 20 4 1 12 4 10 13 -8 7 -14 21
-27 32 -28 11 -2 27 -10 36 -18 9 -8 18 -11 22 -8 3 4 13 -1 22 -10 9 -9 28
-19 43 -23 15 -3 30 -10 33 -16 4 -5 18 -2 33 8 15 10 29 15 32 12 3 -3 -4 -8
-15 -12 -12 -3 -19 -10 -16 -15 3 -5 12 -7 21 -3 9 3 14 0 12 -8 -2 -8 3 -13
10 -11 6 1 12 -2 12 -8 0 -5 5 -10 11 -10 7 0 5 10 -5 25 -22 33 -20 46 2 15
9 -14 26 -27 37 -28 16 -3 18 -1 8 9 -7 7 -13 17 -13 23 0 5 6 1 14 -9 16 -22
11 -39 -10 -31 -8 3 -14 2 -14 -3 0 -10 49 -25 70 -22 8 2 12 -1 7 -5 -4 -4
10 -15 30 -24 38 -17 38 -17 51 7 7 13 17 21 22 18 6 -4 10 3 10 15 0 12 -4
19 -9 16 -5 -3 -16 7 -25 22 -17 26 -17 27 1 6 10 -11 26 -20 35 -18 12 1 14
-3 8 -25 -4 -14 -13 -25 -20 -23 -8 2 -10 -3 -6 -13 3 -9 2 -13 -4 -10 -6 3
-10 -1 -10 -9 0 -16 9 -19 47 -17 11 1 24 -2 27 -7 3 -6 -4 -8 -16 -6 -13 2
-5 -3 17 -12 22 -9 48 -16 58 -16 9 1 15 -3 12 -9 -4 -5 3 -9 14 -9 10 0 21
-5 23 -10 2 -6 14 -12 28 -15 14 -3 26 -9 28 -15 2 -5 8 -10 13 -10 6 0 7 6 3
13 -4 6 5 1 19 -12 15 -14 27 -21 27 -16 0 5 5 4 12 -3 7 -7 17 -12 23 -12 14
0 19 60 5 61 -5 1 -16 2 -22 3 -17 1 -17 29 0 32 7 1 8 0 2 -3 -16 -8 -12 -19
8 -20 17 -1 18 13 19 253 0 239 -1 255 -18 265 -11 5 -19 7 -19 3 0 -4 -8 0
-17 9 -15 12 -20 13 -30 2 -6 -7 -9 -16 -5 -19 3 -4 -2 -4 -12 0 -16 6 -17 5
-5 -14 7 -11 18 -20 23 -19 6 1 11 -9 11 -23 0 -14 -5 -24 -11 -23 -5 1 -16
-8 -23 -19 -11 -18 -11 -20 4 -15 9 4 14 3 10 -3 -3 -6 -1 -10 6 -10 7 0 10
-3 7 -6 -4 -3 -16 -1 -27 6 -20 10 -20 12 -5 35 9 14 20 22 25 19 5 -3 9 4 9
16 0 12 -4 19 -9 16 -5 -3 -16 5 -25 19 -15 23 -15 26 -1 31 8 3 12 11 8 17
-3 6 -1 7 5 3 7 -4 12 -3 12 3 0 5 -13 12 -30 16 -30 7 -30 7 -30 76 0 38 -4
69 -9 69 -5 0 -57 23 -116 50 -59 28 -108 50 -110 50 -2 0 -41 18 -87 39 -45
21 -159 73 -253 116 -93 42 -190 86 -215 97 -978 446 -880 403 -881 392z m206
-714 c-3 -5 -12 -10 -18 -10 -7 0 -6 4 3 10 19 12 23 12 15 0z m20 -10 c-3 -5
-1 -10 6 -10 7 0 10 -3 6 -6 -9 -9 -28 6 -22 17 4 5 8 9 11 9 3 0 2 -4 -1 -10z
m41 -17 c-2 -10 -11 -19 -22 -20 -18 -3 -18 -2 1 6 11 5 16 10 12 10 -5 1 -5
6 -2 11 9 15 14 12 11 -7z m-59 -9 c-3 -3 -12 -4 -19 -1 -8 3 -5 6 6 6 11 1
17 -2 13 -5z m96 -11 c-5 -12 -3 -14 7 -8 9 5 11 4 6 -4 -4 -6 -12 -9 -17 -6
-12 8 -12 35 1 35 5 0 6 -7 3 -17z m-19 -19 c3 -8 2 -12 -4 -9 -6 3 -10 10
-10 16 0 14 7 11 14 -7z m106 -15 c0 -5 -4 -9 -10 -9 -5 0 -10 5 -10 10 0 6
-6 10 -14 10 -8 0 -17 4 -21 10 -3 5 7 5 25 -1 16 -6 30 -15 30 -20z m-130 1
c0 -5 -4 -10 -10 -10 -5 0 -10 5 -10 10 0 6 5 10 10 10 6 0 10 -4 10 -10z m70
0 c0 -5 -8 -10 -17 -10 -15 0 -16 2 -3 10 19 12 20 12 20 0z m-40 -21 c0 -5
-4 -7 -10 -4 -5 3 -10 1 -10 -6 0 -7 -3 -10 -6 -6 -8 7 4 27 17 27 5 0 9 -5 9
-11z m78 -2 c7 -8 6 -18 -4 -31 -8 -11 -14 -15 -14 -9 0 7 5 15 10 18 6 4 8
11 5 16 -9 13 -25 11 -22 -3 1 -8 -7 -12 -21 -11 -15 2 -21 -1 -16 -9 4 -7 3
-8 -5 -4 -18 11 -2 28 20 21 11 -4 19 -3 18 2 -4 25 12 31 29 10z m42 -7 c0
-5 -4 -10 -10 -10 -5 0 -10 5 -10 10 0 6 5 10 10 10 6 0 10 -4 10 -10z m38
-16 c0 -17 -3 -22 -8 -13 -5 6 -6 18 -3 26 8 19 11 16 11 -13z m42 -4 c0 -5
-7 -7 -15 -4 -8 4 -15 8 -15 10 0 2 7 4 15 4 8 0 15 -4 15 -10z m35 0 c3 -5 1
-10 -4 -10 -6 0 -11 5 -11 10 0 6 2 10 4 10 3 0 8 -4 11 -10z m-99 -12 c3 -4
1 -15 -6 -25 -10 -16 -10 -16 -5 3 4 17 1 22 -12 20 -10 0 -24 -8 -31 -16 -11
-13 -12 -12 -3 6 9 19 42 26 57 12z m89 -18 c3 -6 -1 -7 -9 -4 -18 7 -21 14
-7 14 6 0 13 -4 16 -10z m35 0 c0 -5 -4 -10 -10 -10 -5 0 -10 5 -10 10 0 6 5
10 10 10 6 0 10 -4 10 -10z m35 -10 c-4 -7 3 -9 20 -6 15 3 25 2 21 -1 -9 -9
-38 -13 -48 -7 -8 5 -2 24 8 24 3 0 2 -5 -1 -10z m-78 -31 c2 -18 1 -20 -6 -9
-5 8 -8 17 -5 21 2 4 -1 10 -6 12 -6 3 -5 4 1 3 7 -1 14 -13 16 -27z m20 -1
c-3 -8 -6 -5 -6 6 -1 11 2 17 5 13 3 -3 4 -12 1 -19z m38 12 c3 -5 1 -10 -4
-10 -6 0 -11 5 -11 10 0 6 2 10 4 10 3 0 8 -4 11 -10z m1127 3 c-6 -2 -9 -10
-6 -15 4 -7 2 -8 -5 -4 -13 9 -5 26 12 25 9 0 8 -2 -1 -6z m-1042 -10 c0 -5
-5 -15 -10 -23 -7 -12 -9 -10 -7 8 1 19 17 33 17 15z m-33 -9 c-3 -3 -12 -4
-19 -1 -8 3 -5 6 6 6 11 1 17 -2 13 -5z m1150 -41 c-11 -10 -26 8 -20 23 5 15
7 14 15 -1 6 -9 7 -19 5 -22z m-1063 4 c-3 -8 4 -13 16 -14 11 -1 18 2 15 7
-3 5 -1 11 4 14 5 4 8 -2 7 -11 -4 -24 -50 -24 -54 0 -2 9 1 17 7 17 6 0 8 -6
5 -13z m980 -17 c-6 -6 -10 -3 -10 10 0 13 4 16 10 10 7 -7 7 -13 0 -20z m122
5 c-3 -9 -10 -13 -16 -10 -5 3 -10 -3 -10 -14 0 -12 6 -20 13 -18 7 1 12 -8
12 -23 0 -15 -5 -24 -12 -22 -7 1 -13 -7 -13 -18 0 -11 6 -19 13 -17 7 1 12
-8 12 -23 0 -15 -5 -24 -12 -22 -7 1 -13 -7 -13 -18 0 -11 6 -19 13 -17 7 1
12 -8 12 -23 0 -15 -5 -24 -12 -22 -7 1 -13 -7 -13 -18 0 -11 6 -19 13 -17 7
1 12 -8 12 -23 0 -15 -5 -24 -12 -22 -7 1 -13 -7 -13 -18 0 -11 6 -19 13 -17
7 1 12 -8 12 -23 0 -14 -5 -24 -11 -23 -7 1 -15 -10 -19 -24 -5 -21 -8 -24
-16 -12 -5 7 -9 19 -9 24 0 6 4 4 9 -3 6 -10 10 -8 14 8 3 12 10 19 16 15 7
-3 11 2 11 14 0 12 -6 20 -12 19 -8 -2 -13 7 -13 22 0 15 5 24 13 23 6 -2 12
6 12 17 0 11 -6 19 -12 18 -8 -2 -13 7 -13 22 0 15 5 24 13 23 6 -2 12 6 12
17 0 11 -6 19 -12 18 -8 -2 -13 7 -13 22 0 15 5 24 13 23 6 -2 12 6 12 17 0
11 -6 19 -12 18 -8 -2 -13 7 -13 22 0 15 5 24 13 23 6 -2 12 6 12 17 0 11 -6
19 -12 18 -8 -2 -13 7 -13 22 0 15 5 24 13 23 6 -2 12 5 12 14 0 9 3 14 6 10
4 -3 4 -13 0 -22z m-992 -26 c-3 -5 -11 -9 -17 -9 -7 0 -6 4 3 10 10 6 11 10
3 10 -7 0 -13 5 -13 11 0 8 5 8 15 -1 8 -7 12 -16 9 -21z m-124 -4 c0 -8 -2
-15 -4 -15 -2 0 -6 7 -10 15 -3 8 -1 15 4 15 6 0 10 -7 10 -15z m87 9 c-3 -3
-12 -4 -19 -1 -8 3 -5 6 6 6 11 1 17 -2 13 -5z m933 -4 c0 -5 -4 -10 -10 -10
-5 0 -10 5 -10 10 0 6 5 10 10 10 6 0 10 -4 10 -10z m-980 -4 c0 -3 -4 -8 -10
-11 -5 -3 -10 -1 -10 4 0 6 5 11 10 11 6 0 10 -2 10 -4z m126 -11 c-10 -8 -23
-12 -27 -9 -5 3 -9 -3 -9 -13 0 -11 8 -19 19 -20 14 -1 18 3 14 15 -4 14 -3
14 5 2 14 -19 6 -30 -21 -26 -28 4 -31 48 -4 52 11 1 21 5 25 8 3 3 8 6 11 6
3 0 -3 -7 -13 -15z m-71 -15 c0 -7 -6 -14 -13 -16 -7 -1 -8 0 -2 3 17 8 11 19
-10 20 -13 1 -18 -2 -14 -9 4 -7 2 -8 -5 -4 -6 4 -9 12 -6 17 9 13 50 4 50
-11z m899 -10 c-6 -6 -10 -3 -10 10 0 13 4 16 10 10 7 -7 7 -13 0 -20z m-784
16 c0 -2 -7 -6 -15 -10 -8 -3 -15 -1 -15 4 0 6 7 10 15 10 8 0 15 -2 15 -4z
m35 -15 c-3 -2 -16 -6 -28 -8 -15 -2 -18 0 -9 5 14 9 45 12 37 3z m835 -2 c0
-5 -4 -7 -10 -4 -5 3 -10 1 -10 -6 0 -7 -3 -10 -6 -6 -8 7 4 27 17 27 5 0 9
-5 9 -11z m-816 -14 c-4 -8 -11 -15 -16 -15 -6 0 -5 6 2 15 7 8 14 15 16 15 2
0 1 -7 -2 -15z m-150 -11 c3 -8 2 -12 -4 -9 -6 3 -10 10 -10 16 0 14 7 11 14
-7z m183 -15 c-3 -21 -23 -39 -42 -38 -5 0 -1 5 10 12 11 7 21 20 23 31 2 12
-1 16 -9 10 -8 -4 -10 -3 -5 5 11 17 26 3 23 -20z m-97 11 c0 -5 -5 -10 -11
-10 -5 0 -7 5 -4 10 3 6 8 10 11 10 2 0 4 -4 4 -10z m39 -35 c0 -5 -4 -3 -9 5
-5 8 -9 22 -9 30 0 16 17 -16 18 -35z m82 18 c-12 -20 -14 -14 -5 12 4 9 9 14
11 11 3 -2 0 -13 -6 -23z m679 7 c0 -5 -2 -10 -4 -10 -3 0 -8 5 -11 10 -3 6
-1 10 4 10 6 0 11 -4 11 -10z m-843 -6 c-3 -3 -12 -4 -19 -1 -8 3 -5 6 6 6 11
1 17 -2 13 -5z m67 -27 c10 -9 12 -17 6 -17 -6 0 -13 7 -16 15 -4 8 -9 13 -13
11 -4 -3 -13 0 -21 5 -12 7 -10 8 6 6 12 -1 29 -11 38 -20z m166 9 c-7 -7 -13
-7 -20 0 -6 6 -3 10 10 10 13 0 16 -4 10 -10z m668 -4 c2 -7 8 -10 13 -6 5 3
9 0 9 -5 0 -15 -20 -14 -26 2 -2 7 -13 13 -24 14 -16 1 -18 -1 -8 -17 7 -10
17 -18 22 -17 6 1 11 -9 11 -23 0 -14 -5 -24 -11 -23 -5 1 -16 -8 -23 -19 -11
-18 -11 -20 4 -15 9 4 14 3 10 -3 -3 -6 -1 -10 6 -10 7 0 10 -3 7 -6 -4 -3
-16 -1 -27 6 -20 10 -20 12 -5 35 9 14 20 22 25 19 5 -3 9 4 9 16 0 12 -4 19
-9 16 -10 -7 -43 39 -34 48 9 9 47 0 51 -12z m-721 -8 c-2 -3 -17 -7 -33 -10
-17 -2 -24 -1 -17 4 13 8 58 14 50 6z m10 -19 c-10 -7 -18 -17 -18 -22 -1 -4
-2 -10 -4 -11 -2 -2 -3 2 -1 10 2 17 29 48 36 41 3 -2 -3 -11 -13 -18z m83 10
c11 -13 15 -13 21 -3 6 9 9 9 9 1 0 -21 -14 -22 -39 -2 -13 10 -19 19 -13 19
5 0 15 -7 22 -15z m564 -15 c-6 -6 -10 -3 -10 10 0 13 4 16 10 10 7 -7 7 -13
0 -20z m-581 -8 c-2 -6 4 -12 12 -12 8 0 15 -5 15 -10 0 -7 -7 -7 -20 0 -11 6
-18 15 -15 21 4 5 -3 9 -15 9 -12 0 -19 -4 -15 -9 3 -6 -5 -15 -17 -21 -22
-11 -22 -10 -4 4 11 9 16 16 12 16 -4 0 -4 5 -1 11 9 14 51 7 48 -9z m81 -24
c-3 -4 2 -8 10 -8 9 0 16 -5 16 -10 0 -22 -36 9 -37 32 -2 17 0 19 7 8 5 -8 6
-18 4 -22z m-27 0 c-3 -8 -6 -5 -6 6 -1 11 2 17 5 13 3 -3 4 -12 1 -19z m553
12 c0 -5 -4 -10 -10 -10 -5 0 -10 5 -10 10 0 6 5 10 10 10 6 0 10 -4 10 -10z
m-620 -20 c0 -5 -4 -10 -10 -10 -5 0 -10 5 -10 10 0 6 5 10 10 10 6 0 10 -4
10 -10z m594 -20 c-6 -6 -10 -3 -10 10 0 13 4 16 10 10 7 -7 7 -13 0 -20z
m-453 -4 c-10 -12 -9 -15 8 -13 11 1 23 7 25 14 3 7 10 13 16 13 16 0 -20 -34
-38 -37 -25 -3 -32 7 -20 27 7 11 14 17 17 15 2 -3 -2 -11 -8 -19z m-43 -1 c4
-5 -1 -5 -11 -2 -11 4 -20 1 -23 -8 -4 -8 -11 -15 -16 -15 -6 0 -4 8 3 17 12
14 12 16 -2 11 -9 -3 -22 -2 -30 3 -9 5 2 7 29 5 23 -2 46 -7 50 -11z m582 4
c0 -5 -4 -7 -10 -4 -5 3 -10 1 -10 -6 0 -7 -3 -10 -6 -6 -8 7 4 27 17 27 5 0
9 -5 9 -11z m-445 -9 c3 -6 -1 -7 -9 -4 -18 7 -21 14 -7 14 6 0 13 -4 16 -10z
m-44 -23 c-10 -9 -11 -8 -5 6 3 10 9 15 12 12 3 -3 0 -11 -7 -18z m-71 -8 c0
-6 -4 -7 -10 -4 -5 3 -10 11 -10 16 0 6 5 7 10 4 6 -3 10 -11 10 -16z m103 5
c-7 -3 -9 -13 -6 -22 5 -13 3 -14 -7 -5 -14 13 -5 33 13 32 9 0 9 -2 0 -5z
m37 -4 c0 -5 -4 -10 -10 -10 -5 0 -10 5 -10 10 0 6 5 10 10 10 6 0 10 -4 10
-10z m35 -19 c-3 -6 -11 -9 -16 -6 -5 4 -9 2 -9 -4 0 -5 5 -12 10 -14 6 -3 5
-4 -2 -3 -7 2 -13 9 -13 17 0 8 6 13 14 11 9 -2 11 3 7 15 -6 14 -4 15 5 6 6
-6 8 -16 4 -22z m305 19 c0 -5 -2 -10 -4 -10 -3 0 -8 5 -11 10 -3 6 -1 10 4
10 6 0 11 -4 11 -10z m-284 -36 c-3 -15 -8 -29 -11 -32 -3 -3 -3 5 -1 19 2 13
5 27 5 32 1 4 3 7 6 7 3 0 3 -12 1 -26z m342 8 c2 -7 8 -10 13 -6 5 3 9 0 9
-5 0 -15 -20 -14 -26 2 -2 7 -13 13 -24 14 -16 1 -18 -1 -8 -17 7 -10 17 -18
22 -17 6 1 11 -9 11 -23 0 -14 -5 -24 -11 -23 -5 1 -16 -8 -23 -19 -11 -18
-11 -20 4 -15 9 4 14 3 10 -3 -3 -6 -1 -10 6 -10 7 0 10 -3 7 -6 -4 -3 -16 -1
-27 6 -20 10 -20 12 -5 35 9 14 20 22 25 19 5 -3 9 4 9 16 0 12 -4 19 -9 16
-10 -7 -43 39 -34 48 9 9 47 0 51 -12z m-303 -23 c0 -8 -6 -13 -14 -11 -9 2
-11 -3 -7 -13 3 -9 2 -13 -4 -10 -6 3 -10 1 -10 -6 0 -7 -3 -10 -6 -7 -9 10
16 49 27 43 5 -4 9 -2 9 4 0 5 -5 12 -10 14 -6 3 -5 4 2 3 7 -2 13 -9 13 -17z
m243 -4 c-3 -3 -9 2 -12 12 -6 14 -5 15 5 6 7 -7 10 -15 7 -18z m-311 -21 c-3
-3 -12 -4 -19 -1 -8 3 -5 6 6 6 11 1 17 -2 13 -5z m93 -4 c0 -5 -4 -10 -10
-10 -5 0 -10 5 -10 10 0 6 5 10 10 10 6 0 10 -4 10 -10z m240 0 c0 -5 -4 -10
-10 -10 -5 0 -10 5 -10 10 0 6 5 10 10 10 6 0 10 -4 10 -10z m-143 -6 c-3 -3
-12 -4 -19 -1 -8 3 -5 6 6 6 11 1 17 -2 13 -5z m-41 -20 c-5 -12 -1 -14 17 -9
19 5 20 4 4 -5 -21 -13 -38 -5 -30 15 3 8 7 15 10 15 3 0 2 -7 -1 -16z m74 8
c-8 -4 -17 -16 -19 -27 -3 -19 -2 -19 16 -2 11 9 23 17 27 17 5 0 -2 -9 -15
-19 -13 -11 -27 -17 -31 -15 -6 4 -5 29 1 52 1 1 9 2 19 1 14 0 14 -2 2 -7z
m-150 -12 c0 -5 -7 -7 -15 -4 -8 4 -15 8 -15 10 0 2 7 4 15 4 8 0 15 -4 15
-10z m232 -12 c-7 -7 -12 -8 -12 -2 0 6 3 14 7 17 3 4 9 5 12 2 2 -3 -1 -11
-7 -17z m88 1 c0 -5 -4 -7 -10 -4 -5 3 -10 1 -10 -6 0 -7 -3 -10 -6 -6 -8 7 4
27 17 27 5 0 9 -5 9 -11z m-200 -34 c14 -19 14 -19 -2 -6 -10 7 -18 18 -18 24
0 6 1 8 3 6 1 -2 9 -13 17 -24z m92 6 c-2 -8 3 -11 13 -8 8 4 15 2 15 -4 0 -6
-8 -9 -17 -7 -10 2 -17 10 -15 16 1 7 -7 12 -19 12 -11 0 -18 -4 -14 -9 3 -6
-4 -15 -15 -21 -13 -7 -20 -7 -20 0 0 5 7 10 15 10 8 0 14 3 14 8 -3 18 3 23
24 20 12 -2 21 -9 19 -17z m-12 -31 c0 -5 -4 -10 -10 -10 -5 0 -10 5 -10 10 0
6 5 10 10 10 6 0 10 -4 10 -10z m95 -21 c0 -19 -5 -24 -25 -24 -19 0 -24 5
-23 23 1 32 1 32 26 28 16 -2 22 -10 22 -27z m-65 1 c0 -5 -4 -10 -10 -10 -5
0 -10 5 -10 10 0 6 5 10 10 10 6 0 10 -4 10 -10z m87 -52 c2 -18 0 -20 -7 -8
-12 18 -13 30 -2 30 4 0 9 -10 9 -22z m38 3 c3 -5 0 -13 -6 -17 -7 -4 -9 -3
-5 4 3 5 0 13 -6 15 -9 4 -10 6 -1 6 6 1 14 -3 18 -8z"/>
<path d="M2504 1970 c0 -12 7 -18 18 -17 10 1 18 8 18 17 0 9 -8 16 -18 17
-11 1 -18 -5 -18 -17z"/>
<path d="M800 1317 l0 -892 75 -29 c45 -17 75 -34 75 -43 0 -8 4 -11 10 -8 6
3 10 1 10 -4 0 -6 -4 -11 -9 -11 -6 0 -9 -9 -8 -20 1 -11 5 -20 9 -20 4 0 8
-5 8 -11 0 -5 -4 -8 -9 -5 -5 3 -8 -5 -8 -19 0 -13 2 -23 6 -22 6 2 67 -22
120 -47 13 -6 33 -10 44 -8 12 2 17 -1 13 -7 -4 -6 -2 -11 4 -11 6 0 29 -9 52
-20 22 -11 44 -17 49 -15 4 3 10 -1 12 -7 3 -7 6 -4 6 7 1 14 -6 21 -19 22
-13 1 -18 -2 -14 -9 4 -7 2 -8 -5 -4 -17 11 -3 26 22 22 15 -2 23 -11 25 -29
4 -30 11 -33 31 -14 11 10 13 9 8 -5 -5 -15 6 -22 53 -33 3 0 15 -6 27 -13 17
-9 22 -9 26 2 3 8 14 12 24 10 14 -4 19 1 20 16 2 18 -1 19 -13 10 -8 -8 -14
-8 -14 -2 0 13 28 24 34 13 12 -18 -2 -46 -23 -45 -12 0 -21 -6 -21 -14 0 -8
6 -12 14 -9 8 3 17 -1 20 -10 4 -8 13 -13 21 -9 8 3 17 1 20 -4 8 -13 35 -13
35 1 0 5 -5 7 -12 3 -7 -5 -8 -3 -2 7 13 21 16 51 4 44 -5 -3 -10 -1 -10 4 0
6 5 11 10 11 6 0 10 5 10 10 0 6 -8 10 -17 8 -14 -2 -17 3 -16 22 3 24 2 24
-12 6 -12 -16 -15 -17 -15 -4 0 18 26 32 35 18 3 -4 2 -15 -1 -24 -5 -12 -2
-15 10 -10 19 7 22 44 4 44 -9 0 -9 3 -2 8 13 9 16 92 3 92 -5 0 -9 5 -9 11 0
5 4 8 8 5 5 -3 9 13 9 34 0 41 -21 58 -24 20 -1 -13 2 -18 9 -14 7 4 8 2 4 -5
-4 -6 -12 -9 -17 -6 -13 9 -5 48 12 54 8 3 15 14 17 25 2 11 -1 15 -7 11 -6
-3 -11 -1 -11 4 0 6 5 11 10 11 6 0 10 5 10 10 0 6 -8 10 -17 8 -13 -2 -17 3
-16 20 2 13 0 21 -5 18 -4 -2 -15 2 -25 9 -17 13 -17 14 3 20 12 4 24 4 27 1
4 -3 -2 -6 -12 -6 -20 0 -11 -15 8 -15 7 0 11 -10 10 -22 -2 -16 2 -21 12 -17
18 7 20 44 3 44 -9 0 -10 3 -2 8 15 10 16 72 1 72 -9 0 -9 2 -1 8 19 12 14 62
-8 73 -10 5 -16 14 -13 20 4 5 1 9 -5 9 -8 0 -10 -10 -6 -27 5 -23 4 -25 -5
-10 -13 22 -4 51 14 44 6 -2 11 -9 10 -15 -1 -5 4 -12 11 -15 9 -4 14 3 14 19
0 13 -4 22 -7 19 -4 -2 -13 1 -21 6 -12 8 -11 9 4 7 10 -2 21 3 24 11 3 8 0
11 -7 7 -6 -4 -11 -2 -11 3 0 6 5 11 10 11 6 0 10 5 10 10 0 6 -8 10 -17 8
-13 -2 -17 3 -16 20 2 13 0 21 -5 18 -4 -2 -15 2 -25 9 -17 13 -17 14 3 20 12
4 24 4 27 1 4 -3 -2 -6 -12 -6 -20 0 -11 -15 8 -15 7 0 11 -10 10 -22 -2 -16
2 -21 12 -17 18 7 20 40 3 47 -10 4 -10 6 0 6 6 1 12 9 12 19 0 14 -2 15 -10
2 -5 -8 -10 -10 -10 -5 0 6 5 16 11 22 7 7 6 12 -5 16 -10 4 -16 1 -16 -8 0
-18 -16 -20 -26 -3 -4 6 -3 8 3 5 6 -4 13 0 17 8 3 8 12 12 21 9 8 -3 15 -1
15 5 0 6 -4 11 -10 11 -5 0 -10 5 -10 11 0 5 4 8 9 5 5 -3 9 6 9 19 0 14 -4
25 -9 25 -5 0 -9 5 -9 11 0 5 5 7 11 3 7 -4 10 -1 7 7 -3 8 -11 14 -19 14 -8
0 -14 10 -14 25 0 18 5 24 18 22 9 -2 17 2 17 8 0 5 -4 10 -10 10 -5 0 -10 5
-10 11 0 5 5 7 11 3 7 -4 10 -1 7 7 -3 8 -14 13 -24 11 -15 -2 -16 -1 -4 7 8
5 17 8 21 6 3 -3 7 6 7 19 0 16 -5 23 -14 19 -7 -3 -12 -10 -11 -16 1 -7 -8
-12 -20 -12 -13 0 -23 4 -22 10 0 5 -8 13 -18 17 -16 7 -16 8 2 5 11 -2 19 -9
18 -15 -2 -7 6 -12 18 -12 11 0 18 4 14 9 -3 6 3 15 13 20 21 11 27 61 8 61
-8 0 -8 2 0 8 6 4 11 23 11 42 0 19 -5 38 -11 42 -7 5 -8 8 0 8 5 0 10 18 11
40 0 22 -3 40 -8 40 -5 0 -9 5 -9 11 0 5 4 8 8 5 5 -3 9 13 9 34 0 41 -21 58
-24 20 -1 -13 2 -18 9 -14 7 4 8 2 4 -5 -11 -17 -25 -4 -23 21 1 11 9 23 19
26 10 2 18 8 18 12 0 4 -8 10 -18 12 -10 3 -18 15 -19 26 -2 25 12 38 23 21 4
-7 3 -9 -4 -5 -7 4 -10 -1 -9 -14 1 -11 6 -20 12 -20 7 0 11 26 12 70 0 47 -4
67 -11 63 -6 -4 -5 1 3 11 13 15 13 19 0 27 -8 5 -9 9 -3 9 6 0 11 20 11 45 1
34 -4 48 -17 55 -24 13 -39 13 -20 0 12 -8 10 -9 -9 -7 -14 2 -28 12 -32 23
-4 10 -8 15 -8 10 -1 -5 -8 -3 -16 4 -8 7 -21 10 -28 7 -11 -4 -14 11 -16 66
-1 40 -5 75 -9 79 -9 9 -557 238 -569 238 -2 0 -3 -402 -3 -893z m615 493 c3
-5 1 -10 -4 -10 -6 0 -11 5 -11 10 0 6 2 10 4 10 3 0 8 -4 11 -10z m31 -46 c3
-16 2 -26 -1 -23 -3 4 -8 19 -11 35 -3 16 -2 26 1 23 3 -4 8 -19 11 -35z m-29
10 c-3 -3 -12 -4 -19 -1 -8 3 -5 6 6 6 11 1 17 -2 13 -5z m70 -10 c-3 -3 -12
-4 -19 -1 -8 3 -5 6 6 6 11 1 17 -2 13 -5z m-62 -24 c0 -7 -6 -14 -13 -16 -7
-1 -8 0 -2 3 5 2 10 9 10 14 0 6 -4 8 -8 5 -4 -2 -14 0 -22 5 -11 7 -8 8 10 6
14 -2 25 -10 25 -17z m90 12 c-5 -4 -10 -14 -10 -22 0 -8 5 -19 10 -23 6 -5 4
-7 -5 -5 -8 3 -14 14 -13 26 1 31 2 32 16 32 7 0 8 -3 2 -8z m-35 -22 c0 -5
-4 -10 -10 -10 -5 0 -10 5 -10 10 0 6 5 10 10 10 6 0 10 -4 10 -10z m-30 -20
c0 -5 -4 -10 -10 -10 -5 0 -10 5 -10 10 0 6 5 10 10 10 6 0 10 -4 10 -10z
m-33 -16 c-3 -3 -12 -4 -19 -1 -8 3 -5 6 6 6 11 1 17 -2 13 -5z m70 0 c-3 -3
-12 -4 -19 -1 -8 3 -5 6 6 6 11 1 17 -2 13 -5z m-62 -45 c0 -15 -7 -25 -18
-27 -9 -2 -17 1 -17 7 0 6 6 8 13 5 8 -3 13 4 14 16 1 11 -2 18 -6 16 -4 -3
-13 0 -21 5 -11 7 -8 8 10 6 19 -3 25 -10 25 -28z m80 21 c3 -5 0 -12 -6 -16
-7 -4 -9 -3 -5 4 4 7 -1 10 -14 9 -11 -1 -23 -10 -26 -20 -3 -10 -8 -16 -11
-14 -2 3 0 14 5 24 11 19 48 28 57 13z m-9 -41 c5 1 9 -9 9 -21 0 -14 -5 -22
-14 -20 -9 2 -11 -3 -7 -13 3 -9 2 -14 -3 -11 -5 3 -12 -1 -15 -10 -4 -9 -9
-14 -12 -11 -9 8 27 58 37 51 5 -3 9 4 9 15 0 12 -5 20 -11 19 -6 -2 -14 4
-16 12 -4 12 -3 12 5 2 5 -8 13 -13 18 -13z m-26 -19 c0 -5 -4 -10 -10 -10 -5
0 -10 5 -10 10 0 6 5 10 10 10 6 0 10 -4 10 -10z m-24 -28 c1 -7 0 -8 -3 -2
-8 17 -19 11 -20 -10 -1 -13 2 -18 9 -14 7 4 8 2 4 -5 -4 -6 -12 -9 -17 -6 -7
5 -7 20 0 53 2 9 25 -6 27 -16z m-37 -62 c0 -10 -3 -8 -9 5 -12 27 -12 43 0
25 5 -8 9 -22 9 -30z m68 -2 c-3 -8 -6 -5 -6 6 -1 11 2 17 5 13 3 -3 4 -12 1
-19z m-27 2 c0 -5 -4 -10 -10 -10 -5 0 -10 5 -10 10 0 6 5 10 10 10 6 0 10 -4
10 -10z m-15 -30 c3 -6 -1 -7 -9 -4 -18 7 -21 14 -7 14 6 0 13 -4 16 -10z m35
0 c0 -5 -4 -10 -10 -10 -5 0 -10 5 -10 10 0 6 5 10 10 10 6 0 10 -4 10 -10z
m-47 -28 c-4 -15 13 -16 20 -2 3 6 4 5 3 -2 -3 -15 -26 -18 -25 -3 0 6 -10 13
-23 17 -22 7 -22 7 2 5 14 -1 24 -8 23 -15z m54 -14 c-3 -8 -6 -5 -6 6 -1 11
2 17 5 13 3 -3 4 -12 1 -19z m-67 -18 c0 -5 -4 -10 -10 -10 -5 0 -10 5 -10 10
0 6 5 10 10 10 6 0 10 -4 10 -10z m56 -22 c-1 -12 -8 -24 -14 -26 -7 -2 -10
-7 -8 -11 3 -4 -5 -8 -17 -8 -20 -2 -20 -1 3 15 14 9 26 25 28 35 3 15 0 16
-17 5 -11 -6 -19 -16 -18 -22 1 -5 -6 -12 -15 -14 -10 -2 -18 1 -18 7 0 6 7 8
15 4 9 -3 15 -1 13 5 -4 13 33 42 44 36 4 -3 6 -15 4 -26z m29 2 c3 -5 1 -10
-4 -10 -6 0 -11 5 -11 10 0 6 2 10 4 10 3 0 8 -4 11 -10z m2 -36 c-3 -3 -12
-4 -19 -1 -8 3 -5 6 6 6 11 1 17 -2 13 -5z m-87 -34 c7 -14 7 -20 0 -20 -5 0
-10 7 -10 16 0 9 -5 12 -12 8 -7 -4 -8 -3 -4 4 10 16 14 15 26 -8z m95 -11 c0
-19 -6 -24 -25 -24 -18 0 -25 6 -26 20 -1 29 5 35 29 31 16 -2 22 -10 22 -27z
m-59 -45 c3 -16 2 -26 -1 -23 -3 4 -8 19 -11 35 -3 16 -2 26 1 23 3 -4 8 -19
11 -35z m-29 10 c-3 -3 -12 -4 -19 -1 -8 3 -5 6 6 6 11 1 17 -2 13 -5z m70
-10 c-3 -3 -12 -4 -19 -1 -8 3 -5 6 6 6 11 1 17 -2 13 -5z m-62 -24 c0 -7 -6
-14 -13 -16 -7 -1 -8 0 -2 3 5 2 10 9 10 14 0 6 -4 8 -8 5 -4 -2 -14 0 -22 5
-11 7 -8 8 10 6 14 -2 25 -10 25 -17z m90 12 c-5 -4 -10 -14 -10 -22 0 -8 5
-19 10 -23 6 -5 4 -7 -5 -5 -8 3 -14 14 -13 26 1 31 2 32 16 32 7 0 8 -3 2 -8z
m-35 -22 c0 -5 -4 -10 -10 -10 -5 0 -10 5 -10 10 0 6 5 10 10 10 6 0 10 -4 10
-10z m-30 -20 c0 -5 -4 -10 -10 -10 -5 0 -10 5 -10 10 0 6 5 10 10 10 6 0 10
-4 10 -10z m-33 -16 c-3 -3 -12 -4 -19 -1 -8 3 -5 6 6 6 11 1 17 -2 13 -5z
m70 0 c-3 -3 -12 -4 -19 -1 -8 3 -5 6 6 6 11 1 17 -2 13 -5z m-62 -45 c0 -15
-7 -25 -18 -27 -9 -2 -17 1 -17 7 0 6 6 8 13 5 8 -3 13 4 14 16 1 11 -2 18 -6
16 -4 -3 -13 0 -21 5 -11 7 -8 8 10 6 19 -3 25 -10 25 -28z m74 17 c0 -5 5
-13 13 -18 10 -8 10 -9 -2 -5 -8 2 -14 9 -13 15 2 6 -6 10 -17 9 -11 -1 -20
-7 -20 -14 0 -7 -5 -13 -10 -13 -7 0 -7 6 -1 19 10 18 52 24 50 7z m-9 -36 c0
-5 -4 -10 -10 -10 -5 0 -10 5 -10 10 0 6 5 10 10 10 6 0 10 -4 10 -10z m-55
-38 c-20 -14 -16 -39 6 -38 21 1 35 -27 23 -45 -6 -11 -34 0 -34 13 0 6 6 6
14 -2 12 -9 15 -8 13 10 -1 15 -7 20 -22 18 -14 -2 -20 3 -21 17 -1 26 4 35
19 35 8 0 8 -3 2 -8z m-26 -72 c0 -10 -3 -8 -9 5 -12 27 -12 43 0 25 5 -8 9
-22 9 -30z m78 8 c-3 -8 -6 -5 -6 6 -1 11 2 17 5 13 3 -3 4 -12 1 -19z m-42
-38 c13 -6 15 -9 5 -9 -8 0 -22 4 -30 9 -18 12 -2 12 25 0z m-22 -28 c-2 -7 6
-11 20 -9 12 1 21 -3 20 -9 -1 -7 9 -15 22 -18 24 -6 35 -26 15 -26 -5 0 -10
4 -10 9 0 5 -9 11 -21 14 -12 3 -18 10 -14 16 3 7 -1 10 -12 8 -10 -1 -19 3
-20 8 -1 6 -12 13 -25 17 -22 7 -22 7 2 5 14 -1 24 -8 23 -15z m67 -7 c14 -19
14 -19 -2 -6 -10 7 -18 18 -18 24 0 6 1 8 3 6 1 -2 9 -13 17 -24z m-80 -25 c0
-5 -4 -10 -10 -10 -5 0 -10 5 -10 10 0 6 5 10 10 10 6 0 10 -4 10 -10z m27
-19 c-10 -4 -17 -11 -16 -16 1 -6 -5 -11 -14 -13 -9 -2 -17 1 -17 7 0 6 7 8
15 4 9 -3 15 -2 14 3 -3 18 1 24 19 23 16 0 16 -1 -1 -8z m28 -39 c0 -12 -4
-21 -9 -21 -5 0 -13 -5 -18 -13 -8 -10 -9 -10 -5 2 2 8 10 14 16 12 14 -3 11
29 -4 41 -6 5 -4 7 5 4 8 -2 15 -13 15 -25z m22 -4 c-3 -8 -6 -5 -6 6 -1 11 2
17 5 13 3 -3 4 -12 1 -19z m-52 2 c-3 -5 -12 -10 -18 -10 -7 0 -6 4 3 10 19
12 23 12 15 0z m-15 -50 c0 -3 9 -6 20 -7 13 -1 18 2 14 9 -4 7 -2 8 5 4 17
-11 4 -25 -20 -23 -12 1 -26 12 -32 24 -5 12 -14 20 -20 16 -6 -4 -7 -1 -2 7
6 10 11 9 22 -5 7 -11 13 -22 13 -25z m-11 -40 c0 -10 -3 -8 -9 5 -12 27 -12
43 0 25 5 -8 9 -22 9 -30z m41 -25 c0 -5 -5 -3 -10 5 -5 8 -10 20 -10 25 0 6
5 3 10 -5 5 -8 10 -19 10 -25z m-20 -5 c0 -5 -4 -10 -10 -10 -5 0 -10 5 -10
10 0 6 5 10 10 10 6 0 10 -4 10 -10z m36 -43 c-2 -15 -10 -22 -25 -21 -14 0
-21 -5 -21 -18 0 -10 6 -17 13 -15 7 1 11 -7 10 -20 -2 -14 2 -22 10 -20 18 3
15 -46 -3 -50 -9 -3 -11 -1 -5 4 15 13 18 44 3 41 -8 -2 -12 5 -11 19 2 14 -2
22 -10 20 -7 -1 -12 8 -12 23 0 19 5 24 20 22 15 -2 21 3 22 18 2 18 -1 19
-13 10 -9 -8 -14 -9 -14 -2 0 12 21 22 32 15 4 -2 6 -14 4 -26z m-66 -14 c-11
-17 -11 -17 -6 0 3 10 6 24 7 30 0 9 2 9 5 0 3 -7 0 -20 -6 -30z m87 5 c-3 -8
-6 -5 -6 6 -1 11 2 17 5 13 3 -3 4 -12 1 -19z m-12 -28 c-3 -5 -12 -10 -18
-10 -7 0 -6 4 3 10 19 12 23 12 15 0z m-66 -50 c0 -10 -3 -8 -9 5 -12 27 -12
43 0 25 5 -8 9 -22 9 -30z m26 -30 c3 -6 -1 -7 -9 -4 -18 7 -21 14 -7 14 6 0
13 -4 16 -10z m75 0 c-8 -5 -19 -10 -25 -10 -5 0 -3 5 5 10 8 5 20 10 25 10 6
0 3 -5 -5 -10z m-88 -25 c-2 -5 5 -13 15 -17 17 -7 17 -8 0 -5 -10 1 -18 7
-17 12 1 6 -9 13 -22 17 -22 7 -22 7 2 5 14 -1 24 -6 22 -12z m75 -11 c-3 -3
-12 -4 -19 -1 -8 3 -5 6 6 6 11 1 17 -2 13 -5z m-87 -24 c0 -5 -4 -10 -10 -10
-5 0 -10 5 -10 10 0 6 5 10 10 10 6 0 10 -4 10 -10z m95 -10 c0 -7 -6 -14 -13
-16 -7 -1 -8 0 -2 3 16 8 12 19 -9 20 -13 1 -18 -5 -17 -20 1 -17 -5 -22 -24
-22 -26 0 -36 26 -12 31 7 1 8 0 2 -3 -16 -8 -12 -19 9 -20 13 -1 18 4 16 15
-1 9 -1 20 2 24 7 13 48 2 48 -12z m-96 -60 c0 -10 -3 -8 -9 5 -12 27 -12 43
0 25 5 -8 9 -22 9 -30z m41 -25 c0 -5 -5 -3 -10 5 -5 8 -10 20 -10 25 0 6 5 3
10 -5 5 -8 10 -19 10 -25z m-20 -5 c0 -5 -4 -10 -10 -10 -5 0 -10 5 -10 10 0
6 5 10 10 10 6 0 10 -4 10 -10z m36 -43 c-2 -15 -10 -22 -25 -21 -14 0 -21 -5
-21 -18 0 -10 6 -17 13 -15 7 1 11 -7 10 -20 -2 -14 2 -22 10 -20 18 3 15 -46
-3 -50 -9 -3 -11 -1 -5 4 15 13 18 44 3 41 -8 -2 -12 5 -11 19 2 14 -2 22 -10
20 -7 -1 -12 8 -12 23 0 19 5 24 20 22 15 -2 21 3 22 18 2 18 -1 19 -13 10 -9
-8 -14 -9 -14 -2 0 12 21 22 32 15 4 -2 6 -14 4 -26z m-66 -14 c-11 -17 -11
-17 -6 0 3 10 6 24 7 30 0 9 2 9 5 0 3 -7 0 -20 -6 -30z m87 5 c-3 -8 -6 -5
-6 6 -1 11 2 17 5 13 3 -3 4 -12 1 -19z m20 -24 c-2 -3 -17 -7 -33 -10 -17 -2
-24 -1 -17 4 13 8 58 14 50 6z m-98 -54 c0 -10 -3 -8 -9 5 -12 27 -12 43 0 25
5 -8 9 -22 9 -30z m68 8 c-3 -8 -6 -5 -6 6 -1 11 2 17 5 13 3 -3 4 -12 1 -19z
m-487 -13 c-7 -9 -15 -13 -17 -11 -6 6 20 36 26 30 2 -2 -2 -10 -9 -19z m42 1
c7 4 8 2 4 -5 -9 -13 -26 -5 -25 12 0 9 2 8 6 -1 2 -6 10 -9 15 -6z m-29 -31
c-3 -10 -1 -15 8 -13 7 2 15 -5 17 -16 5 -23 -13 -43 -23 -25 -5 8 -4 10 3 5
8 -5 12 0 12 13 0 12 -5 20 -12 19 -6 -2 -14 5 -16 15 -2 9 1 17 7 17 6 0 8
-7 4 -15z m52 5 c-3 -5 -11 -10 -16 -10 -6 0 -7 5 -4 10 3 6 11 10 16 10 6 0
7 -4 4 -10z m35 -10 c-6 -11 -15 -18 -21 -15 -5 4 -9 -3 -9 -14 0 -12 6 -20
12 -18 7 1 14 -9 15 -23 2 -24 2 -24 -5 -2 -4 13 -11 23 -17 23 -5 -1 -10 8
-10 19 0 11 4 19 8 18 5 -2 13 5 18 15 14 24 22 21 9 -3z m345 9 c4 -5 -2 -6
-12 -2 -16 6 -16 5 -4 -10 7 -9 9 -17 3 -17 -5 0 -13 7 -16 16 -3 8 -11 12
-17 8 -7 -4 -9 -3 -6 2 7 13 45 15 52 3z m60 1 c3 -5 1 -10 -4 -10 -6 0 -11 5
-11 10 0 6 2 10 4 10 3 0 8 -4 11 -10z m-355 -16 c0 -2 -7 -4 -15 -4 -8 0 -15
4 -15 10 0 5 7 7 15 4 8 -4 15 -8 15 -10z m10 -33 c-6 -12 -15 -19 -21 -16 -5
4 -9 2 -9 -4 0 -5 5 -12 10 -14 6 -3 5 -4 -2 -3 -7 2 -13 9 -13 17 0 8 6 13
14 11 9 -2 11 3 7 13 -3 9 -2 13 4 10 6 -3 10 -1 10 6 0 7 3 10 6 7 3 -4 1
-16 -6 -27z m-160 9 c0 -5 -4 -10 -10 -10 -5 0 -10 5 -10 10 0 6 5 10 10 10 6
0 10 -4 10 -10z m120 0 c0 -5 -4 -10 -10 -10 -5 0 -10 5 -10 10 0 6 5 10 10
10 6 0 10 -4 10 -10z m387 4 c-3 -3 -12 -4 -19 -1 -8 3 -5 6 6 6 11 1 17 -2
13 -5z m-290 -10 c-3 -3 -12 -4 -19 -1 -8 3 -5 6 6 6 11 1 17 -2 13 -5z m240
0 c-3 -3 -12 -4 -19 -1 -8 3 -5 6 6 6 11 1 17 -2 13 -5z m-286 -27 c-10 -9
-11 -8 -5 6 3 10 9 15 12 12 3 -3 0 -11 -7 -18z m84 13 c3 -5 0 -7 -7 -5 -9 4
-14 -2 -14 -14 0 -27 36 -23 37 4 1 17 2 17 6 2 7 -26 -15 -49 -36 -37 -14 7
-20 34 -12 58 2 6 21 1 26 -8z m165 0 c0 -5 -4 -10 -10 -10 -5 0 -10 5 -10 10
0 6 5 10 10 10 6 0 10 -4 10 -10z m95 -10 c0 -7 -6 -14 -13 -16 -7 -1 -8 0 -2
3 16 8 12 19 -9 20 -13 1 -18 -5 -17 -20 1 -17 -5 -22 -24 -22 -26 0 -36 26
-12 31 7 1 8 0 2 -3 -16 -8 -12 -19 9 -20 13 -1 18 4 16 15 -1 9 -1 20 2 24 7
13 48 2 48 -12z m-305 -10 c0 -5 -4 -10 -10 -10 -5 0 -10 5 -10 10 0 6 5 10
10 10 6 0 10 -4 10 -10z m-30 -20 c0 -5 -4 -10 -10 -10 -5 0 -10 5 -10 10 0 6
5 10 10 10 6 0 10 -4 10 -10z m117 -10 c-1 -11 -5 -20 -9 -20 -10 0 -10 4 -2
24 8 22 13 20 11 -4z m74 2 c-7 -2 -18 1 -23 6 -8 8 -4 9 13 5 13 -4 18 -8 10
-11z m26 -14 c-2 -12 -10 -24 -18 -26 -11 -3 -12 -2 -1 6 8 5 13 12 13 16 -2
15 -1 26 4 26 3 0 3 -10 2 -22z m-177 2 c0 -5 -7 -6 -17 -3 -12 5 -14 3 -8 -7
5 -9 4 -11 -4 -6 -6 4 -9 12 -6 17 8 12 35 12 35 -1z m117 4 c-3 -3 -12 -4
-19 -1 -8 3 -5 6 6 6 11 1 17 -2 13 -5z m80 -16 c-3 -8 -6 -5 -6 6 -1 11 2 17
5 13 3 -3 4 -12 1 -19z m78 12 c-27 -12 -43 -12 -25 0 8 5 22 9 30 9 10 0 8
-3 -5 -9z m-35 -35 c0 -5 -5 -3 -10 5 -5 8 -10 20 -10 25 0 6 5 3 10 -5 5 -8
10 -19 10 -25z m-108 15 c1 -3 -3 -14 -10 -25 -6 -11 -12 -15 -12 -10 0 6 6
17 13 24 10 10 8 12 -8 9 -11 -1 -26 -10 -33 -18 -11 -13 -12 -12 -3 6 9 19
48 29 53 14z m88 -20 c0 -5 -4 -10 -10 -10 -5 0 -10 5 -10 10 0 6 5 10 10 10
6 0 10 -4 10 -10z m-43 -42 c2 -17 0 -19 -7 -8 -5 8 -6 18 -4 22 3 4 -2 8 -10
8 -9 0 -16 5 -16 10 0 22 36 -9 37 -32z m20 0 c-3 -8 -6 -5 -6 6 -1 11 2 17 5
13 3 -3 4 -12 1 -19z m80 -10 c-3 -8 -6 -5 -6 6 -1 11 2 17 5 13 3 -3 4 -12 1
-19z m23 -28 c0 -5 -4 -10 -10 -10 -5 0 -10 5 -10 10 0 6 5 10 10 10 6 0 10
-4 10 -10z"/>
<path d="M1463 1331 c-1 -9 6 -17 16 -18 9 -1 17 6 18 16 1 9 -6 17 -16 18 -9
1 -17 -6 -18 -16z"/>
<path d="M1910 1425 c0 -223 1 -405 3 -405 2 0 36 11 75 24 56 19 72 22 72 11
0 -7 10 -15 23 -17 16 -2 21 -9 19 -23 -2 -15 3 -21 18 -22 18 -2 19 1 10 13
-8 8 -8 14 -2 14 13 0 24 -28 13 -34 -18 -12 -46 2 -45 23 0 13 -5 21 -16 21
-15 0 -17 -13 -17 -101 0 -88 2 -99 14 -83 7 10 13 13 13 7 0 -6 9 -9 20 -6
11 3 20 9 20 14 0 5 12 15 28 23 15 8 26 18 24 23 -1 4 8 9 20 10 l23 2 -23
-7 c-13 -4 -22 -11 -20 -15 2 -5 -8 -15 -22 -22 -48 -27 24 -8 120 32 8 3 19
5 24 4 5 -1 6 5 3 14 -4 8 -2 15 3 15 6 0 10 -5 10 -10 0 -7 6 -7 20 0 11 6
20 7 20 3 0 -4 7 2 16 13 8 10 13 13 9 7 -3 -7 -1 -13 5 -13 6 0 9 12 8 28 -2
17 1 26 10 25 6 -2 12 7 12 19 0 20 -1 21 -20 3 -11 -10 -22 -16 -24 -14 -2 2
7 12 20 22 21 16 25 16 30 3 8 -21 -3 -49 -16 -41 -12 8 -13 -5 -1 -24 5 -7
14 -10 20 -7 6 4 9 11 6 16 -3 5 0 12 6 15 5 4 8 14 4 24 -5 12 -4 13 6 4 9
-10 10 -15 0 -27 -8 -10 -9 -16 -1 -21 5 -3 10 -1 10 5 0 6 4 8 10 5 5 -3 20
0 32 7 13 6 28 13 33 14 6 0 16 2 23 2 6 1 12 8 12 16 0 20 17 29 26 15 4 -8
3 -9 -4 -5 -7 4 -12 2 -12 -3 0 -18 28 -12 33 7 3 9 5 95 5 191 -1 151 -3 174
-17 178 -9 2 -20 3 -24 3 -5 -1 -14 6 -21 15 -6 9 -16 15 -21 14 -6 -1 -22 4
-37 11 -26 12 -28 17 -28 75 0 68 -3 73 -65 97 -22 9 -69 30 -105 46 -93 43
-382 172 -386 172 -2 0 -4 -182 -4 -405z m574 -15 c-6 -6 -10 -3 -10 10 0 13
4 16 10 10 7 -7 7 -13 0 -20z m22 -5 c-8 -21 26 -16 36 5 6 11 7 10 5 -4 -2
-18 -32 -30 -48 -20 -8 5 -1 34 8 34 3 0 2 -7 -1 -15z m89 -56 c6 1 10 -9 10
-21 0 -13 -5 -22 -12 -20 -7 1 -13 -7 -13 -18 0 -11 6 -19 13 -17 7 1 12 -8
12 -23 0 -15 -5 -24 -12 -22 -7 1 -13 -7 -13 -18 0 -11 6 -19 13 -17 7 1 12
-8 12 -23 0 -15 -5 -24 -12 -23 -7 2 -13 -6 -13 -17 0 -11 6 -19 13 -17 6 1
12 -4 12 -12 0 -8 -6 -15 -13 -17 -7 -1 -8 0 -2 3 14 7 12 23 -2 20 -8 -1 -13
8 -13 23 0 15 5 24 13 23 6 -2 12 6 12 17 0 11 -6 19 -12 17 -8 -1 -13 8 -13
23 0 15 5 24 13 23 6 -2 12 6 12 17 0 11 -6 19 -12 18 -8 -2 -13 7 -13 22 0
15 5 24 13 23 6 -2 12 6 12 17 0 11 -6 19 -12 18 -7 -2 -14 8 -15 22 -2 24 -2
24 5 2 4 -13 12 -23 17 -23z m-58 15 c-3 -3 -12 -4 -19 -1 -8 3 -5 6 6 6 11 1
17 -2 13 -5z m-33 -12 c2 -4 -5 -19 -16 -32 l-20 -25 17 29 c16 27 16 29 1 23
-10 -4 -15 -3 -11 3 7 12 22 13 29 2z m66 -24 c0 -19 -16 -5 -17 14 -2 18 0
20 7 8 5 -8 10 -18 10 -22z m-37 5 c-7 -2 -13 -9 -13 -14 0 -5 6 -8 13 -6 7 1
12 -8 12 -23 0 -14 -5 -24 -11 -23 -5 1 -16 -8 -23 -19 -11 -18 -11 -20 4 -15
9 4 14 3 10 -3 -3 -6 -1 -10 6 -10 7 0 10 -3 7 -6 -4 -3 -16 -1 -27 6 -20 10
-20 12 -5 35 9 14 20 22 25 19 5 -3 9 4 9 16 0 12 -4 19 -9 15 -12 -7 -24 12
-16 25 3 6 12 10 18 9 9 0 9 -2 0 -6z m-23 -43 c0 -5 -4 -10 -10 -10 -5 0 -10
5 -10 10 0 6 5 10 10 10 6 0 10 -4 10 -10z m-22 -35 c-3 -3 -9 2 -12 12 -6 14
-5 15 5 6 7 -7 10 -15 7 -18z m82 -6 c0 -5 -4 -7 -10 -4 -5 3 -10 1 -10 -6 0
-7 -3 -10 -6 -6 -8 7 4 27 17 27 5 0 9 -5 9 -11z m-80 -39 c0 -5 -5 -10 -11
-10 -5 0 -7 5 -4 10 3 6 8 10 11 10 2 0 4 -4 4 -10z m-40 -20 c0 -5 -5 -10
-11 -10 -5 0 -7 5 -4 10 3 6 8 10 11 10 2 0 4 -4 4 -10z m95 -21 c0 -19 -5
-24 -25 -24 -19 0 -24 5 -23 23 1 32 1 32 26 28 16 -2 22 -10 22 -27z m-125
-1 c0 -4 -4 -8 -9 -8 -6 0 -12 4 -15 8 -3 5 1 9 9 9 8 0 15 -4 15 -9z m60 2
c0 -5 -4 -10 -10 -10 -5 0 -10 5 -10 10 0 6 5 10 10 10 6 0 10 -4 10 -10z
m-95 -21 c-6 -9 -40 -7 -51 4 -4 3 6 4 21 1 19 -3 24 -1 19 7 -4 8 -3 9 5 5 6
-4 9 -12 6 -17z m65 1 c0 -5 -4 -10 -10 -10 -5 0 -10 5 -10 10 0 6 5 10 10 10
6 0 10 -4 10 -10z m-27 -28 c-2 -7 6 -12 17 -12 11 0 19 5 18 12 -2 6 5 14 15
16 9 2 17 -1 17 -7 0 -6 -7 -8 -15 -4 -10 3 -15 0 -13 -8 2 -9 -6 -14 -19 -14
-13 0 -23 4 -22 10 0 5 -8 13 -18 17 -16 7 -16 8 2 5 11 -2 19 -9 18 -15z
m-126 2 c-3 -3 -12 -4 -19 -1 -8 3 -5 6 6 6 11 1 17 -2 13 -5z m70 0 c-3 -3
-12 -4 -19 -1 -8 3 -5 6 6 6 11 1 17 -2 13 -5z m165 -1 c-10 -4 -10 -8 0 -21
10 -14 10 -15 -2 -4 -21 18 -32 14 -18 -7 7 -11 17 -19 22 -18 6 1 11 -8 11
-20 0 -13 -4 -23 -8 -22 -5 0 -15 -8 -23 -18 -13 -17 -15 -17 -29 2 -9 11 -19
19 -23 17 -4 -1 -8 7 -8 19 -1 11 5 23 12 26 8 3 11 10 7 16 -3 6 -1 7 5 3 16
-10 15 -26 -1 -26 -7 0 -13 -9 -14 -20 -1 -11 2 -18 7 -15 5 3 14 -3 19 -12
11 -17 11 -17 22 0 5 9 14 15 20 12 5 -4 9 3 9 15 0 12 -4 19 -9 16 -5 -3 -16
5 -25 19 -15 22 -15 25 2 34 9 6 22 10 27 10 6 0 4 -3 -3 -6z m-266 -31 c4
-24 -11 -38 -22 -21 -5 8 -3 9 5 5 15 -10 11 25 -4 37 -6 5 -4 7 4 5 8 -2 16
-14 17 -26z m64 18 c0 -5 -4 -10 -10 -10 -5 0 -10 5 -10 10 0 6 5 10 10 10 6
0 10 -4 10 -10z m62 1 c-8 -4 -13 -11 -12 -15 2 -14 -19 -40 -26 -33 -5 5 -2
12 6 17 8 5 16 14 16 20 3 18 4 20 17 20 9 0 9 -2 -1 -9z m174 -27 c3 -16 2
-26 -1 -23 -3 4 -8 19 -11 35 -3 16 -2 26 1 23 3 -4 8 -19 11 -35z m-334 7
c-8 -4 -13 -12 -13 -17 1 -15 -42 -10 -46 6 -3 9 -1 11 4 5 10 -12 44 -19 42
-8 -3 16 1 23 14 23 9 0 9 -2 -1 -9z m68 5 c0 -3 -4 -8 -10 -11 -5 -3 -10 -1
-10 4 0 6 5 11 10 11 6 0 10 -2 10 -4z m50 -6 c-8 -5 -19 -10 -25 -10 -5 0 -3
5 5 10 8 5 20 10 25 10 6 0 3 -5 -5 -10z m75 -8 c-3 -3 -11 0 -18 7 -9 10 -8
11 6 5 10 -3 15 -9 12 -12z m-282 -13 c-8 -8 -13 -7 -18 2 -5 8 -4 10 3 5 7
-4 12 -2 12 5 0 7 3 9 7 6 4 -4 2 -12 -4 -18z m-33 6 c0 -2 -10 -9 -22 -15
-22 -11 -22 -10 -4 4 21 17 26 19 26 11z m234 -36 c-3 -5 4 -9 16 -9 12 0 18
5 15 10 -3 6 1 13 9 16 9 3 13 11 9 17 -3 6 -1 7 5 3 17 -10 15 -26 -3 -26 -8
0 -14 -6 -12 -12 1 -8 -8 -13 -23 -13 -14 0 -24 5 -23 11 1 5 -7 16 -18 22
-17 11 -20 10 -17 -5 2 -10 10 -24 18 -31 13 -11 12 -12 -6 -3 -18 9 -25 37
-15 59 0 1 12 -5 26 -14 14 -9 22 -20 19 -25z m93 9 c-3 -8 -6 -5 -6 6 -1 11
2 17 5 13 3 -3 4 -12 1 -19z m-297 -4 c0 -2 -7 -4 -15 -4 -8 0 -15 4 -15 10 0
5 7 7 15 4 8 -4 15 -8 15 -10z m30 9 c0 -5 -5 -15 -10 -23 -7 -12 -9 -10 -7 8
1 19 17 33 17 15z m80 -14 c0 -6 -4 -7 -10 -4 -5 3 -10 11 -10 16 0 6 5 7 10
4 6 -3 10 -11 10 -16z m27 -1 c-3 -8 -6 -5 -6 6 -1 11 2 17 5 13 3 -3 4 -12 1
-19z m233 12 c0 -5 -4 -10 -10 -10 -5 0 -10 5 -10 10 0 6 5 10 10 10 6 0 10
-4 10 -10z m100 0 c0 -5 -7 -7 -15 -4 -8 4 -15 8 -15 10 0 2 7 4 15 4 8 0 15
-4 15 -10z m-394 -15 c10 -8 15 -15 9 -15 -5 0 -3 -5 5 -11 13 -9 13 -10 0 -6
-8 2 -14 10 -12 17 2 8 -3 10 -13 6 -9 -3 -14 -2 -10 3 3 5 -1 12 -7 14 -7 3
-8 6 -2 6 5 1 19 -6 30 -14z m-36 -20 c0 -8 -4 -15 -10 -15 -5 0 -7 7 -4 15 4
8 8 15 10 15 2 0 4 -7 4 -15z m90 -5 c0 -5 -4 -10 -10 -10 -5 0 -10 5 -10 10
0 6 5 10 10 10 6 0 10 -4 10 -10z m-184 -46 c3 -16 2 -26 -1 -23 -3 4 -8 19
-11 35 -3 16 -2 26 1 23 3 -4 8 -19 11 -35z m124 26 c0 -5 -4 -10 -10 -10 -5
0 -10 5 -10 10 0 6 5 10 10 10 6 0 10 -4 10 -10z m136 -17 c2 -12 -1 -25 -6
-28 -13 -8 -52 33 -44 46 11 18 47 5 50 -18z m-96 7 c0 -5 -7 -10 -15 -10 -8
0 -14 -6 -12 -12 1 -8 -8 -13 -20 -13 -13 0 -23 4 -22 10 0 5 -8 13 -18 17
-16 7 -16 8 2 5 11 -2 19 -9 18 -15 -2 -7 6 -12 18 -12 11 0 18 4 14 9 -3 6 3
14 12 20 23 13 23 13 23 1z m39 -35 c0 -5 -4 -3 -9 5 -5 8 -9 22 -9 30 0 16
17 -16 18 -35z m78 23 c-3 -8 -6 -5 -6 6 -1 11 2 17 5 13 3 -3 4 -12 1 -19z
m-240 -4 c-3 -3 -12 -4 -19 -1 -8 3 -5 6 6 6 11 1 17 -2 13 -5z m26 -10 c-7
-3 -9 -13 -6 -22 4 -14 3 -14 -5 -2 -12 16 -7 30 11 29 9 0 9 -2 0 -5z m126
-38 c0 -6 -3 -5 -6 2 -2 6 -9 10 -14 7 -5 -4 -6 2 -3 12 5 16 4 16 -10 -1 -9
-11 -16 -15 -16 -10 0 6 6 16 12 22 10 10 15 9 25 -5 7 -9 13 -22 12 -27z
m-154 3 c0 -8 -6 -13 -12 -11 -7 1 -13 -8 -13 -20 l0 -21 25 23 c14 13 27 22
29 19 2 -2 -10 -14 -25 -27 -25 -20 -30 -21 -35 -8 -8 21 3 49 16 41 5 -3 10
-2 10 4 0 5 -5 12 -10 14 -6 3 -5 4 2 3 7 -2 13 -9 13 -17z m-42 -4 c-3 -9 -8
-14 -10 -11 -3 3 -2 9 2 15 9 16 15 13 8 -4z"/>
<path d="M2504 1170 c0 -12 7 -18 18 -17 10 1 18 8 18 17 0 9 -8 16 -18 17
-11 1 -18 -5 -18 -17z"/>
<path d="M2306 976 c9 -24 33 -27 31 -5 -1 11 -9 19 -19 19 -11 0 -15 -5 -12
-14z"/>
<path d="M1500 1011 c0 -10 7 -18 15 -18 8 0 15 6 15 13 0 6 -7 14 -15 18 -10
3 -15 -1 -15 -13z"/>
</g>
</svg>
